<?xml version="1.0" encoding="UTF-8"?>
<svg width="200" height="200" viewBox="0 0 200 200" xmlns="http://www.w3.org/2000/svg">
  <!-- Body -->
  <path d="M40,130 Q80,120 120,130 Q150,140 170,130 Q180,125 180,140 Q180,160 160,170 Q130,185 90,180 Q70,178 50,160 Q30,150 40,130" 
        fill="#87CEEB"/>
  
  <!-- Long Neck -->
  <path d="M40,130 Q30,100 40,80 Q50,60 70,50" 
        fill="none" 
        stroke="#87CEEB" 
        stroke-width="20" 
        stroke-linecap="round"/>
  
  <!-- Head -->
  <path d="M60,40 Q65,35 75,40 Q85,42 90,50 Q92,55 85,60 Q75,65 65,55 Q58,50 60,40" 
        fill="#87CEEB"/>
  
  <!-- Eye -->
  <circle cx="75" cy="45" r="3" fill="black"/>
  
  <!-- Smile -->
  <path d="M65,53 Q75,57 85,53" 
        fill="none" 
        stroke="black" 
        stroke-width="2" 
        stroke-linecap="round"/>
  
  <!-- Legs -->
  <path d="M90,170 Q95,180 100,190" 
        fill="none" 
        stroke="#87CEEB" 
        stroke-width="8" 
        stroke-linecap="round"/>
  
  <path d="M110,170 Q115,180 120,190" 
        fill="none" 
        stroke="#87CEEB" 
        stroke-width="8" 
        stroke-linecap="round"/>
</svg>
