<?xml version="1.0" encoding="UTF-8"?>
<svg width="400" height="400" viewBox="0 0 400 400" xmlns="http://www.w3.org/2000/svg">
  <!-- Body -->
  <path d="M150,200 Q220,190 280,210 Q320,220 340,200 Q360,190 350,230 Q340,270 300,290 Q250,310 180,300 Q140,295 120,260 Q110,240 150,200" 
        fill="#5D4037" stroke="#3E2723" stroke-width="3"/>
  
  <!-- Neck -->
  <path d="M150,200 Q140,160 160,130 Q180,100 200,90" 
        fill="#5D4037" stroke="#3E2723" stroke-width="3"/>
  
  <!-- Head -->
  <path d="M200,90 Q220,80 240,85 Q260,90 270,100 Q280,110 270,120 Q250,135 220,130 Q200,125 200,90" 
        fill="#5D4037" stroke="#3E2723" stroke-width="3"/>
  
  <!-- Jaw -->
  <path d="M220,110 Q240,110 260,115 Q270,120 260,130 Q240,140 220,135 Q210,130 220,110" 
        fill="#6D4C41" stroke="#3E2723" stroke-width="2"/>
  
  <!-- Eye -->
  <circle cx="235" cy="100" r="5" fill="#FFF"/>
  <circle cx="235" cy="100" r="2" fill="#000"/>
  
  <!-- Teeth -->
  <path d="M230,125 L235,120 L240,125 L245,120 L250,125" 
        fill="none" stroke="#FFF" stroke-width="2"/>
  
  <!-- Legs -->
  <path d="M200,290 Q210,310 220,340" 
        fill="none" stroke="#5D4037" stroke-width="15" stroke-linecap="round"/>
  <path d="M250,290 Q260,310 270,340" 
        fill="none" stroke="#5D4037" stroke-width="15" stroke-linecap="round"/>
  
  <!-- Arms -->
  <path d="M180,220 Q185,230 190,235" 
        fill="none" stroke="#5D4037" stroke-width="8" stroke-linecap="round"/>
  
  <!-- Tail -->
  <path d="M300,250 Q340,260 360,240 Q380,220 390,180" 
        fill="none" stroke="#5D4037" stroke-width="20" stroke-linecap="round"/>
  
  <!-- Scales and Details -->
  <path d="M160,210 Q180,205 200,210 Q220,215 240,210" 
        fill="none" stroke="#3E2723" stroke-width="2"/>
  <path d="M180,230 Q200,225 220,230 Q240,235 260,230" 
        fill="none" stroke="#3E2723" stroke-width="2"/>
  
  <!-- Muscle Definition -->
  <path d="M220,250 Q240,245 260,255" 
        fill="none" stroke="#3E2723" stroke-width="2" opacity="0.5"/>
  <path d="M200,270 Q220,265 240,275" 
        fill="none" stroke="#3E2723" stroke-width="2" opacity="0.5"/>
</svg>
